<?xml version="1.0" encoding="UTF-8" standalone="no"?>
<!DOCTYPE svg PUBLIC "-//W3C//DTD SVG 1.1//EN"
 "http://www.w3.org/Graphics/SVG/1.1/DTD/svg11.dtd">
<!-- Generated by graphviz version 12.1.2 (20240928.0832)
 -->
<!-- Title: SimPM_ClassHierarchy Pages: 1 -->
<svg width="410pt" height="193pt"
 viewBox="0.00 0.00 410.12 193.00" xmlns="http://www.w3.org/2000/svg" xmlns:xlink="http://www.w3.org/1999/xlink">
<g id="graph0" class="graph" transform="scale(1 1) rotate(0) translate(4 189)">
<title>SimPM_ClassHierarchy</title>
<polygon fill="white" stroke="none" points="-4,4 -4,-189 406.12,-189 406.12,4 -4,4"/>
<!-- SimObject -->
<g id="node1" class="node">
<title>SimObject</title>
<polygon fill="lightcoral" stroke="black" points="174.75,-185 90.5,-185 90.5,-144 174.75,-144 174.75,-185"/>
<text text-anchor="middle" x="132.62" y="-167.7" font-family="Times New Roman,serif" font-size="14.00">SimObject</text>
<text text-anchor="middle" x="132.62" y="-151.2" font-family="Times New Roman,serif" font-size="14.00">(Base Class)</text>
</g>
<!-- Environment -->
<g id="node2" class="node">
<title>Environment</title>
<polygon fill="lightblue" stroke="black" points="87.25,-108 0,-108 0,-72 87.25,-72 87.25,-108"/>
<text text-anchor="middle" x="43.62" y="-84.95" font-family="Times New Roman,serif" font-size="14.00">Environment</text>
</g>
<!-- SimObject&#45;&gt;Environment -->
<g id="edge1" class="edge">
<title>SimObject&#45;&gt;Environment</title>
<path fill="none" stroke="black" d="M108.31,-143.69C97.58,-134.96 84.88,-124.61 73.58,-115.4"/>
<polygon fill="none" stroke="black" points="76.02,-112.88 66.06,-109.28 71.6,-118.3 76.02,-112.88"/>
</g>
<!-- Entity -->
<g id="node3" class="node">
<title>Entity</title>
<polygon fill="lightblue" stroke="black" points="159.62,-108 105.62,-108 105.62,-72 159.62,-72 159.62,-108"/>
<text text-anchor="middle" x="132.62" y="-84.95" font-family="Times New Roman,serif" font-size="14.00">Entity</text>
</g>
<!-- SimObject&#45;&gt;Entity -->
<g id="edge2" class="edge">
<title>SimObject&#45;&gt;Entity</title>
<path fill="none" stroke="black" d="M132.62,-143.69C132.62,-136.25 132.62,-127.64 132.62,-119.57"/>
<polygon fill="none" stroke="black" points="136.13,-119.83 132.63,-109.83 129.13,-119.83 136.13,-119.83"/>
</g>
<!-- Resource -->
<g id="node4" class="node">
<title>Resource</title>
<polygon fill="lightyellow" stroke="black" points="243.75,-108 177.5,-108 177.5,-72 243.75,-72 243.75,-108"/>
<text text-anchor="middle" x="210.62" y="-84.95" font-family="Times New Roman,serif" font-size="14.00">Resource</text>
</g>
<!-- SimObject&#45;&gt;Resource -->
<g id="edge3" class="edge">
<title>SimObject&#45;&gt;Resource</title>
<path fill="none" stroke="black" d="M153.94,-143.69C163.15,-135.13 174.03,-125.02 183.78,-115.95"/>
<polygon fill="none" stroke="black" points="185.94,-118.72 190.88,-109.35 181.18,-113.59 185.94,-118.72"/>
</g>
<!-- PriorityResource -->
<g id="node5" class="node">
<title>PriorityResource</title>
<polygon fill="lightgreen" stroke="black" points="128.38,-36 20.88,-36 20.88,0 128.38,0 128.38,-36"/>
<text text-anchor="middle" x="74.62" y="-12.95" font-family="Times New Roman,serif" font-size="14.00">PriorityResource</text>
</g>
<!-- Resource&#45;&gt;PriorityResource -->
<g id="edge4" class="edge">
<title>Resource&#45;&gt;PriorityResource</title>
<path fill="none" stroke="black" d="M177.01,-71.7C159.35,-62.61 137.5,-51.36 118.53,-41.6"/>
<polygon fill="none" stroke="black" points="120.17,-38.5 109.67,-37.04 116.96,-44.73 120.17,-38.5"/>
</g>
<!-- PreemptiveResource -->
<g id="node6" class="node">
<title>PreemptiveResource</title>
<polygon fill="lightgreen" stroke="black" points="274.88,-36 146.38,-36 146.38,0 274.88,0 274.88,-36"/>
<text text-anchor="middle" x="210.62" y="-12.95" font-family="Times New Roman,serif" font-size="14.00">PreemptiveResource</text>
</g>
<!-- Resource&#45;&gt;PreemptiveResource -->
<g id="edge5" class="edge">
<title>Resource&#45;&gt;PreemptiveResource</title>
<path fill="none" stroke="black" d="M210.62,-71.7C210.62,-64.41 210.62,-55.73 210.62,-47.54"/>
<polygon fill="none" stroke="black" points="214.13,-47.62 210.63,-37.62 207.13,-47.62 214.13,-47.62"/>
</g>
<!-- GeneralResource -->
<g id="node7" class="node">
<title>GeneralResource</title>
<polygon fill="lightblue" stroke="black" points="402.12,-36 293.12,-36 293.12,0 402.12,0 402.12,-36"/>
<text text-anchor="middle" x="347.62" y="-12.95" font-family="Times New Roman,serif" font-size="14.00">GeneralResource</text>
</g>
<!-- Resource&#45;&gt;GeneralResource -->
<g id="edge6" class="edge">
<title>Resource&#45;&gt;GeneralResource</title>
<path fill="none" stroke="black" d="M244.14,-71.88C262,-62.75 284.2,-51.41 303.45,-41.57"/>
<polygon fill="none" stroke="black" points="304.85,-44.79 312.16,-37.12 301.66,-38.56 304.85,-44.79"/>
</g>
</g>
</svg>
