<?xml version="1.0" encoding="UTF-8" standalone="no"?>
<!DOCTYPE svg PUBLIC "-//W3C//DTD SVG 1.1//EN"
 "http://www.w3.org/Graphics/SVG/1.1/DTD/svg11.dtd">
<!-- Generated by graphviz version 12.1.2 (20240928.0832)
 -->
<!-- Title: SimPM_Workflow Pages: 1 -->
<svg width="116pt" height="548pt"
 viewBox="0.00 0.00 115.50 548.00" xmlns="http://www.w3.org/2000/svg" xmlns:xlink="http://www.w3.org/1999/xlink">
<g id="graph0" class="graph" transform="scale(1 1) rotate(0) translate(4 544)">
<title>SimPM_Workflow</title>
<polygon fill="white" stroke="none" points="-4,4 -4,-544 111.5,-544 111.5,4 -4,4"/>
<!-- Start -->
<g id="node1" class="node">
<title>Start</title>
<ellipse fill="lightblue" stroke="black" cx="53.75" cy="-522" rx="27" ry="18"/>
<text text-anchor="middle" x="53.75" y="-518.7" font-family="Arial" font-size="9.00">Start</text>
</g>
<!-- CreateEnv -->
<g id="node2" class="node">
<title>CreateEnv</title>
<polygon fill="lightcoral" stroke="black" points="107.5,-468 0,-468 0,-432 107.5,-432 107.5,-468"/>
<text text-anchor="middle" x="53.75" y="-446.7" font-family="Arial" font-size="9.00">1. Create Environment</text>
</g>
<!-- Start&#45;&gt;CreateEnv -->
<g id="edge1" class="edge">
<title>Start&#45;&gt;CreateEnv</title>
<path fill="none" stroke="black" d="M53.75,-503.7C53.75,-496.41 53.75,-487.73 53.75,-479.54"/>
<polygon fill="black" stroke="black" points="57.25,-479.62 53.75,-469.62 50.25,-479.62 57.25,-479.62"/>
</g>
<!-- CreateResources -->
<g id="node3" class="node">
<title>CreateResources</title>
<polygon fill="lightblue" stroke="black" points="103.75,-396 3.75,-396 3.75,-360 103.75,-360 103.75,-396"/>
<text text-anchor="middle" x="53.75" y="-374.7" font-family="Arial" font-size="9.00">2. Create Resources</text>
</g>
<!-- CreateEnv&#45;&gt;CreateResources -->
<g id="edge2" class="edge">
<title>CreateEnv&#45;&gt;CreateResources</title>
<path fill="none" stroke="black" d="M53.75,-431.7C53.75,-424.41 53.75,-415.73 53.75,-407.54"/>
<polygon fill="black" stroke="black" points="57.25,-407.62 53.75,-397.62 50.25,-407.62 57.25,-407.62"/>
</g>
<!-- CreateEntities -->
<g id="node4" class="node">
<title>CreateEntities</title>
<polygon fill="lightblue" stroke="black" points="96.62,-324 10.88,-324 10.88,-288 96.62,-288 96.62,-324"/>
<text text-anchor="middle" x="53.75" y="-302.7" font-family="Arial" font-size="9.00">3. Create Entities</text>
</g>
<!-- CreateResources&#45;&gt;CreateEntities -->
<g id="edge3" class="edge">
<title>CreateResources&#45;&gt;CreateEntities</title>
<path fill="none" stroke="black" d="M53.75,-359.7C53.75,-352.41 53.75,-343.73 53.75,-335.54"/>
<polygon fill="black" stroke="black" points="57.25,-335.62 53.75,-325.62 50.25,-335.62 57.25,-335.62"/>
</g>
<!-- DefineProcess -->
<g id="node5" class="node">
<title>DefineProcess</title>
<polygon fill="lightblue" stroke="black" points="102.62,-252 4.88,-252 4.88,-216 102.62,-216 102.62,-252"/>
<text text-anchor="middle" x="53.75" y="-230.7" font-family="Arial" font-size="9.00">4. Define Processes</text>
</g>
<!-- CreateEntities&#45;&gt;DefineProcess -->
<g id="edge4" class="edge">
<title>CreateEntities&#45;&gt;DefineProcess</title>
<path fill="none" stroke="black" d="M53.75,-287.7C53.75,-280.41 53.75,-271.73 53.75,-263.54"/>
<polygon fill="black" stroke="black" points="57.25,-263.62 53.75,-253.62 50.25,-263.62 57.25,-263.62"/>
</g>
<!-- RunSim -->
<g id="node6" class="node">
<title>RunSim</title>
<polygon fill="lightyellow" stroke="black" points="98.12,-180 9.38,-180 9.38,-144 98.12,-144 98.12,-180"/>
<text text-anchor="middle" x="53.75" y="-163.95" font-family="Arial" font-size="9.00">5. Run Simulation</text>
<text text-anchor="middle" x="53.75" y="-153.45" font-family="Arial" font-size="9.00">(simpm.run)</text>
</g>
<!-- DefineProcess&#45;&gt;RunSim -->
<g id="edge5" class="edge">
<title>DefineProcess&#45;&gt;RunSim</title>
<path fill="none" stroke="black" d="M53.75,-215.7C53.75,-208.41 53.75,-199.73 53.75,-191.54"/>
<polygon fill="black" stroke="black" points="57.25,-191.62 53.75,-181.62 50.25,-191.62 57.25,-191.62"/>
</g>
<!-- ViewResults -->
<g id="node7" class="node">
<title>ViewResults</title>
<polygon fill="lightgreen" stroke="black" points="98.88,-108 8.62,-108 8.62,-72 98.88,-72 98.88,-108"/>
<text text-anchor="middle" x="53.75" y="-91.95" font-family="Arial" font-size="9.00">6. View Results</text>
<text text-anchor="middle" x="53.75" y="-81.45" font-family="Arial" font-size="9.00">(Dashboard/Logs)</text>
</g>
<!-- RunSim&#45;&gt;ViewResults -->
<g id="edge6" class="edge">
<title>RunSim&#45;&gt;ViewResults</title>
<path fill="none" stroke="black" d="M53.75,-143.7C53.75,-136.41 53.75,-127.73 53.75,-119.54"/>
<polygon fill="black" stroke="black" points="57.25,-119.62 53.75,-109.62 50.25,-119.62 57.25,-119.62"/>
</g>
<!-- End -->
<g id="node8" class="node">
<title>End</title>
<ellipse fill="lightblue" stroke="black" cx="53.75" cy="-18" rx="27" ry="18"/>
<text text-anchor="middle" x="53.75" y="-14.7" font-family="Arial" font-size="9.00">End</text>
</g>
<!-- ViewResults&#45;&gt;End -->
<g id="edge7" class="edge">
<title>ViewResults&#45;&gt;End</title>
<path fill="none" stroke="black" d="M53.75,-71.7C53.75,-64.41 53.75,-55.73 53.75,-47.54"/>
<polygon fill="black" stroke="black" points="57.25,-47.62 53.75,-37.62 50.25,-47.62 57.25,-47.62"/>
</g>
</g>
</svg>
