<?xml version="1.0" encoding="UTF-8" standalone="no"?>
<!DOCTYPE svg PUBLIC "-//W3C//DTD SVG 1.1//EN"
 "http://www.w3.org/Graphics/SVG/1.1/DTD/svg11.dtd">
<!-- Generated by graphviz version 12.1.2 (20240928.0832)
 -->
<!-- Title: SimPM_ClassHierarchy Pages: 1 -->
<svg width="352pt" height="188pt"
 viewBox="0.00 0.00 352.25 188.00" xmlns="http://www.w3.org/2000/svg" xmlns:xlink="http://www.w3.org/1999/xlink">
<g id="graph0" class="graph" transform="scale(1 1) rotate(0) translate(4 184)">
<title>SimPM_ClassHierarchy</title>
<polygon fill="white" stroke="none" points="-4,4 -4,-184 348.25,-184 348.25,4 -4,4"/>
<!-- SimObject -->
<g id="node1" class="node">
<title>SimObject</title>
<polygon fill="lightcoral" stroke="black" points="147.12,-180 78.62,-180 78.62,-144 147.12,-144 147.12,-180"/>
<text text-anchor="middle" x="112.88" y="-163.95" font-family="Arial" font-size="9.00">SimObject</text>
<text text-anchor="middle" x="112.88" y="-153.45" font-family="Arial" font-size="9.00">(Base Class)</text>
</g>
<!-- Environment -->
<g id="node2" class="node">
<title>Environment</title>
<polygon fill="lightblue" stroke="black" points="67.75,-108 0,-108 0,-72 67.75,-72 67.75,-108"/>
<text text-anchor="middle" x="33.88" y="-86.7" font-family="Arial" font-size="9.00">Environment</text>
</g>
<!-- SimObject&#45;&gt;Environment -->
<g id="edge1" class="edge">
<title>SimObject&#45;&gt;Environment</title>
<path fill="none" stroke="black" d="M93.35,-143.7C83.85,-135.28 72.27,-125.02 61.85,-115.79"/>
<polygon fill="none" stroke="black" points="64.39,-113.36 54.59,-109.35 59.75,-118.6 64.39,-113.36"/>
</g>
<!-- Entity -->
<g id="node3" class="node">
<title>Entity</title>
<polygon fill="lightblue" stroke="black" points="139.88,-108 85.88,-108 85.88,-72 139.88,-72 139.88,-108"/>
<text text-anchor="middle" x="112.88" y="-86.7" font-family="Arial" font-size="9.00">Entity</text>
</g>
<!-- SimObject&#45;&gt;Entity -->
<g id="edge2" class="edge">
<title>SimObject&#45;&gt;Entity</title>
<path fill="none" stroke="black" d="M112.88,-143.7C112.88,-136.41 112.88,-127.73 112.88,-119.54"/>
<polygon fill="none" stroke="black" points="116.38,-119.62 112.88,-109.62 109.38,-119.62 116.38,-119.62"/>
</g>
<!-- Resource -->
<g id="node4" class="node">
<title>Resource</title>
<polygon fill="lightyellow" stroke="black" points="213.75,-108 158,-108 158,-72 213.75,-72 213.75,-108"/>
<text text-anchor="middle" x="185.88" y="-86.7" font-family="Arial" font-size="9.00">Resource</text>
</g>
<!-- SimObject&#45;&gt;Resource -->
<g id="edge3" class="edge">
<title>SimObject&#45;&gt;Resource</title>
<path fill="none" stroke="black" d="M130.92,-143.7C139.61,-135.37 150.19,-125.22 159.73,-116.07"/>
<polygon fill="none" stroke="black" points="161.9,-118.84 166.69,-109.39 157.05,-113.79 161.9,-118.84"/>
</g>
<!-- PriorityResource -->
<g id="node5" class="node">
<title>PriorityResource</title>
<polygon fill="lightgreen" stroke="black" points="117,-36 32.75,-36 32.75,0 117,0 117,-36"/>
<text text-anchor="middle" x="74.88" y="-14.7" font-family="Arial" font-size="9.00">PriorityResource</text>
</g>
<!-- Resource&#45;&gt;PriorityResource -->
<g id="edge4" class="edge">
<title>Resource&#45;&gt;PriorityResource</title>
<path fill="none" stroke="black" d="M158.15,-71.52C144.14,-62.68 126.95,-51.84 111.83,-42.3"/>
<polygon fill="none" stroke="black" points="113.85,-39.44 103.53,-37.07 110.12,-45.36 113.85,-39.44"/>
</g>
<!-- PreemptiveResource -->
<g id="node6" class="node">
<title>PreemptiveResource</title>
<polygon fill="lightgreen" stroke="black" points="237,-36 134.75,-36 134.75,0 237,0 237,-36"/>
<text text-anchor="middle" x="185.88" y="-14.7" font-family="Arial" font-size="9.00">PreemptiveResource</text>
</g>
<!-- Resource&#45;&gt;PreemptiveResource -->
<g id="edge5" class="edge">
<title>Resource&#45;&gt;PreemptiveResource</title>
<path fill="none" stroke="black" d="M185.88,-71.7C185.88,-64.41 185.88,-55.73 185.88,-47.54"/>
<polygon fill="none" stroke="black" points="189.38,-47.62 185.88,-37.62 182.38,-47.62 189.38,-47.62"/>
</g>
<!-- GeneralResource -->
<g id="node7" class="node">
<title>GeneralResource</title>
<polygon fill="lightblue" stroke="black" points="344.25,-36 255.5,-36 255.5,0 344.25,0 344.25,-36"/>
<text text-anchor="middle" x="299.88" y="-14.7" font-family="Arial" font-size="9.00">GeneralResource</text>
</g>
<!-- Resource&#45;&gt;GeneralResource -->
<g id="edge6" class="edge">
<title>Resource&#45;&gt;GeneralResource</title>
<path fill="none" stroke="black" d="M214.05,-71.7C228.58,-62.78 246.49,-51.78 262.19,-42.14"/>
<polygon fill="none" stroke="black" points="263.64,-45.35 270.33,-37.14 259.98,-39.39 263.64,-45.35"/>
</g>
</g>
</svg>
