<?xml version="1.0" encoding="UTF-8" standalone="no"?>
<!DOCTYPE svg PUBLIC "-//W3C//DTD SVG 1.1//EN"
 "http://www.w3.org/Graphics/SVG/1.1/DTD/svg11.dtd">
<!-- Generated by graphviz version 12.1.2 (20240928.0832)
 -->
<!-- Title: SimPM_Architecture Pages: 1 -->
<svg width="726pt" height="182pt"
 viewBox="0.00 0.00 726.25 182.00" xmlns="http://www.w3.org/2000/svg" xmlns:xlink="http://www.w3.org/1999/xlink">
<g id="graph0" class="graph" transform="scale(1 1) rotate(0) translate(4 178)">
<title>SimPM_Architecture</title>
<polygon fill="white" stroke="none" points="-4,4 -4,-178 722.25,-178 722.25,4 -4,4"/>
<!-- Environment -->
<g id="node1" class="node">
<title>Environment</title>
<path fill="lightcoral" stroke="black" d="M79,-131C79,-131 12,-131 12,-131 6,-131 0,-125 0,-119 0,-119 0,-107 0,-107 0,-101 6,-95 12,-95 12,-95 79,-95 79,-95 85,-95 91,-101 91,-107 91,-107 91,-119 91,-119 91,-125 85,-131 79,-131"/>
<text text-anchor="middle" x="45.5" y="-114.95" font-family="Arial" font-size="9.00">Environment</text>
<text text-anchor="middle" x="45.5" y="-104.45" font-family="Arial" font-size="9.00">(Simulation Clock)</text>
</g>
<!-- Entity -->
<g id="node2" class="node">
<title>Entity</title>
<path fill="lightblue" stroke="black" d="M248.38,-47C248.38,-47 197.88,-47 197.88,-47 191.88,-47 185.88,-41 185.88,-35 185.88,-35 185.88,-23 185.88,-23 185.88,-17 191.88,-11 197.88,-11 197.88,-11 248.38,-11 248.38,-11 254.38,-11 260.38,-17 260.38,-23 260.38,-23 260.38,-35 260.38,-35 260.38,-41 254.38,-47 248.38,-47"/>
<text text-anchor="middle" x="223.12" y="-30.95" font-family="Arial" font-size="9.00">Entity</text>
<text text-anchor="middle" x="223.12" y="-20.45" font-family="Arial" font-size="9.00">(Agents/Items)</text>
</g>
<!-- Environment&#45;&gt;Entity -->
<g id="edge1" class="edge">
<title>Environment&#45;&gt;Entity</title>
<path fill="none" stroke="black" d="M79.34,-94.65C88.83,-89.52 99.26,-84.03 109,-79.25 130.52,-68.68 154.76,-57.78 175.27,-48.85"/>
<polygon fill="black" stroke="black" points="176.45,-52.15 184.24,-44.97 173.67,-45.73 176.45,-52.15"/>
<text text-anchor="middle" x="138.25" y="-81.4" font-family="Times New Roman,serif" font-size="8.00">creates</text>
</g>
<!-- Resource -->
<g id="node3" class="node">
<title>Resource</title>
<path fill="lightblue" stroke="black" d="M392.62,-93C392.62,-93 333.12,-93 333.12,-93 327.12,-93 321.12,-87 321.12,-81 321.12,-81 321.12,-69 321.12,-69 321.12,-63 327.12,-57 333.12,-57 333.12,-57 392.62,-57 392.62,-57 398.62,-57 404.62,-63 404.62,-69 404.62,-69 404.62,-81 404.62,-81 404.62,-87 398.62,-93 392.62,-93"/>
<text text-anchor="middle" x="362.88" y="-76.95" font-family="Arial" font-size="9.00">Resource</text>
<text text-anchor="middle" x="362.88" y="-66.45" font-family="Arial" font-size="9.00">(Capacity Pools)</text>
</g>
<!-- Environment&#45;&gt;Resource -->
<g id="edge2" class="edge">
<title>Environment&#45;&gt;Resource</title>
<path fill="none" stroke="black" d="M91.22,-114.6C97.2,-114.77 103.25,-114.91 109,-115 176.47,-116.08 194.53,-122.97 260.75,-110 277.19,-106.78 294.6,-101.48 310.25,-95.98"/>
<polygon fill="black" stroke="black" points="311.15,-99.37 319.35,-92.67 308.76,-92.8 311.15,-99.37"/>
<text text-anchor="middle" x="223.12" y="-119.94" font-family="Times New Roman,serif" font-size="8.00">manages</text>
</g>
<!-- Process -->
<g id="node5" class="node">
<title>Process</title>
<path fill="lightblue" stroke="black" d="M403.5,-174C403.5,-174 322.25,-174 322.25,-174 316.25,-174 310.25,-168 310.25,-162 310.25,-162 310.25,-150 310.25,-150 310.25,-144 316.25,-138 322.25,-138 322.25,-138 403.5,-138 403.5,-138 409.5,-138 415.5,-144 415.5,-150 415.5,-150 415.5,-162 415.5,-162 415.5,-168 409.5,-174 403.5,-174"/>
<text text-anchor="middle" x="362.88" y="-157.95" font-family="Arial" font-size="9.00">Process</text>
<text text-anchor="middle" x="362.88" y="-147.45" font-family="Arial" font-size="9.00">(Generator Functions)</text>
</g>
<!-- Environment&#45;&gt;Process -->
<g id="edge3" class="edge">
<title>Environment&#45;&gt;Process</title>
<path fill="none" stroke="black" d="M91.36,-126.14C97.26,-127.59 103.25,-128.93 109,-130 173.14,-141.94 247.52,-148.76 298.93,-152.39"/>
<polygon fill="black" stroke="black" points="298.46,-155.87 308.68,-153.06 298.94,-148.88 298.46,-155.87"/>
<text text-anchor="middle" x="223.12" y="-151.5" font-family="Times New Roman,serif" font-size="8.00">schedules</text>
</g>
<!-- Event -->
<g id="node6" class="node">
<title>Event</title>
<path fill="lightblue" stroke="black" d="M248.75,-101C248.75,-101 197.5,-101 197.5,-101 191.5,-101 185.5,-95 185.5,-89 185.5,-89 185.5,-77 185.5,-77 185.5,-71 191.5,-65 197.5,-65 197.5,-65 248.75,-65 248.75,-65 254.75,-65 260.75,-71 260.75,-77 260.75,-77 260.75,-89 260.75,-89 260.75,-95 254.75,-101 248.75,-101"/>
<text text-anchor="middle" x="223.12" y="-84.95" font-family="Arial" font-size="9.00">Event</text>
<text text-anchor="middle" x="223.12" y="-74.45" font-family="Arial" font-size="9.00">(Event Queue)</text>
</g>
<!-- Environment&#45;&gt;Event -->
<g id="edge4" class="edge">
<title>Environment&#45;&gt;Event</title>
<path fill="none" stroke="black" d="M91.27,-105.35C116.59,-101.03 148.25,-95.62 174.09,-91.21"/>
<polygon fill="black" stroke="black" points="174.38,-94.71 183.64,-89.57 173.2,-87.81 174.38,-94.71"/>
<text text-anchor="middle" x="138.25" y="-103.72" font-family="Times New Roman,serif" font-size="8.00">drives</text>
</g>
<!-- Entity&#45;&gt;Resource -->
<g id="edge6" class="edge">
<title>Entity&#45;&gt;Resource</title>
<path fill="none" stroke="black" d="M260.68,-41.21C275.85,-46.27 293.72,-52.24 310.19,-57.74"/>
<polygon fill="black" stroke="black" points="308.74,-60.95 319.34,-60.79 310.96,-54.31 308.74,-60.95"/>
<text text-anchor="middle" x="285.5" y="-52.77" font-family="Times New Roman,serif" font-size="8.00">uses</text>
</g>
<!-- Entity&#45;&gt;Process -->
<g id="edge5" class="edge">
<title>Entity&#45;&gt;Process</title>
<path fill="none" stroke="black" d="M250.1,-47.42C253.74,-50.22 257.39,-53.12 260.75,-56 288.29,-79.55 317.49,-108.97 337.4,-129.79"/>
<polygon fill="black" stroke="black" points="334.6,-131.92 344.03,-136.76 339.68,-127.1 334.6,-131.92"/>
<text text-anchor="middle" x="285.5" y="-84.33" font-family="Times New Roman,serif" font-size="8.00">runs</text>
</g>
<!-- Recorder -->
<g id="node7" class="node">
<title>Recorder</title>
<path fill="lightyellow" stroke="black" d="M556.75,-63C556.75,-63 495.75,-63 495.75,-63 489.75,-63 483.75,-57 483.75,-51 483.75,-51 483.75,-39 483.75,-39 483.75,-33 489.75,-27 495.75,-27 495.75,-27 556.75,-27 556.75,-27 562.75,-27 568.75,-33 568.75,-39 568.75,-39 568.75,-51 568.75,-51 568.75,-57 562.75,-63 556.75,-63"/>
<text text-anchor="middle" x="526.25" y="-46.95" font-family="Arial" font-size="9.00">Recorder</text>
<text text-anchor="middle" x="526.25" y="-36.45" font-family="Arial" font-size="9.00">(Data Collection)</text>
</g>
<!-- Entity&#45;&gt;Recorder -->
<g id="edge7" class="edge">
<title>Entity&#45;&gt;Recorder</title>
<path fill="none" stroke="black" d="M260.82,-30.63C299.35,-32.38 361.69,-35.3 415.5,-38.25 433.87,-39.26 453.97,-40.47 471.89,-41.58"/>
<polygon fill="black" stroke="black" points="471.59,-45.07 481.79,-42.2 472.03,-38.08 471.59,-45.07"/>
<text text-anchor="middle" x="362.88" y="-40.4" font-family="Times New Roman,serif" font-size="8.00">records to</text>
</g>
<!-- Resource&#45;&gt;Recorder -->
<g id="edge8" class="edge">
<title>Resource&#45;&gt;Recorder</title>
<path fill="none" stroke="black" d="M405.01,-67.35C425.45,-63.55 450.38,-58.92 472.24,-54.86"/>
<polygon fill="black" stroke="black" points="472.66,-58.34 481.86,-53.07 471.38,-51.45 472.66,-58.34"/>
<text text-anchor="middle" x="449.62" y="-63.95" font-family="Times New Roman,serif" font-size="8.00">records to</text>
</g>
<!-- Distribution -->
<g id="node4" class="node">
<title>Distribution</title>
<path fill="lightblue" stroke="black" d="M72.25,-41C72.25,-41 18.75,-41 18.75,-41 12.75,-41 6.75,-35 6.75,-29 6.75,-29 6.75,-17 6.75,-17 6.75,-11 12.75,-5 18.75,-5 18.75,-5 72.25,-5 72.25,-5 78.25,-5 84.25,-11 84.25,-17 84.25,-17 84.25,-29 84.25,-29 84.25,-35 78.25,-41 72.25,-41"/>
<text text-anchor="middle" x="45.5" y="-24.95" font-family="Arial" font-size="9.00">Distribution</text>
<text text-anchor="middle" x="45.5" y="-14.45" font-family="Arial" font-size="9.00">(Random Vars)</text>
</g>
<!-- Distribution&#45;&gt;Entity -->
<g id="edge9" class="edge">
<title>Distribution&#45;&gt;Entity</title>
<path fill="none" stroke="black" d="M84.67,-22.65C108.5,-22.61 139.8,-22.9 167.5,-24.25 169.67,-24.36 171.9,-24.48 174.14,-24.62"/>
<polygon fill="black" stroke="black" points="173.69,-28.1 183.91,-25.31 174.19,-21.11 173.69,-28.1"/>
<text text-anchor="middle" x="138.25" y="-26.4" font-family="Times New Roman,serif" font-size="8.00">provides durations</text>
</g>
<!-- Dashboard -->
<g id="node8" class="node">
<title>Dashboard</title>
<path fill="lightgreen" stroke="black" d="M706.25,-90C706.25,-90 661,-90 661,-90 655,-90 649,-84 649,-78 649,-78 649,-66 649,-66 649,-60 655,-54 661,-54 661,-54 706.25,-54 706.25,-54 712.25,-54 718.25,-60 718.25,-66 718.25,-66 718.25,-78 718.25,-78 718.25,-84 712.25,-90 706.25,-90"/>
<text text-anchor="middle" x="683.62" y="-73.95" font-family="Arial" font-size="9.00">Dashboard</text>
<text text-anchor="middle" x="683.62" y="-63.45" font-family="Arial" font-size="9.00">(Streamlit UI)</text>
</g>
<!-- Recorder&#45;&gt;Dashboard -->
<g id="edge10" class="edge">
<title>Recorder&#45;&gt;Dashboard</title>
<path fill="none" stroke="black" d="M568.89,-52.24C590.07,-55.92 615.85,-60.4 637.5,-64.16"/>
<polygon fill="black" stroke="black" points="636.79,-67.59 647.24,-65.85 637.98,-60.69 636.79,-67.59"/>
<text text-anchor="middle" x="608.88" y="-64.65" font-family="Times New Roman,serif" font-size="8.00">feeds</text>
</g>
<!-- Logger -->
<g id="node9" class="node">
<title>Logger</title>
<path fill="lightblue" stroke="black" d="M705.12,-36C705.12,-36 662.12,-36 662.12,-36 656.12,-36 650.12,-30 650.12,-24 650.12,-24 650.12,-12 650.12,-12 650.12,-6 656.12,0 662.12,0 662.12,0 705.12,0 705.12,0 711.12,0 717.12,-6 717.12,-12 717.12,-12 717.12,-24 717.12,-24 717.12,-30 711.12,-36 705.12,-36"/>
<text text-anchor="middle" x="683.62" y="-19.95" font-family="Arial" font-size="9.00">Logger</text>
<text text-anchor="middle" x="683.62" y="-9.45" font-family="Arial" font-size="9.00">(Log Config)</text>
</g>
<!-- Recorder&#45;&gt;Logger -->
<g id="edge11" class="edge">
<title>Recorder&#45;&gt;Logger</title>
<path fill="none" stroke="black" d="M568.89,-37.76C590.37,-34.03 616.59,-29.48 638.43,-25.68"/>
<polygon fill="black" stroke="black" points="638.99,-29.13 648.25,-23.97 637.79,-22.24 638.99,-29.13"/>
<text text-anchor="middle" x="608.88" y="-36.07" font-family="Times New Roman,serif" font-size="8.00">configured by</text>
</g>
</g>
</svg>
