<?xml version="1.0" encoding="UTF-8" standalone="no"?>
<!DOCTYPE svg PUBLIC "-//W3C//DTD SVG 1.1//EN"
 "http://www.w3.org/Graphics/SVG/1.1/DTD/svg11.dtd">
<!-- Generated by graphviz version 12.1.2 (20240928.0832)
 -->
<!-- Title: SimPM_Architecture Pages: 1 -->
<svg width="964pt" height="203pt"
 viewBox="0.00 0.00 964.00 203.00" xmlns="http://www.w3.org/2000/svg" xmlns:xlink="http://www.w3.org/1999/xlink">
<g id="graph0" class="graph" transform="scale(1 1) rotate(0) translate(4 199)">
<title>SimPM_Architecture</title>
<polygon fill="white" stroke="none" points="-4,4 -4,-199 960,-199 960,4 -4,4"/>
<!-- Environment -->
<g id="node1" class="node">
<title>Environment</title>
<path fill="lightcoral" stroke="black" d="M109,-147C109,-147 12,-147 12,-147 6,-147 0,-141 0,-135 0,-135 0,-118 0,-118 0,-112 6,-106 12,-106 12,-106 109,-106 109,-106 115,-106 121,-112 121,-118 121,-118 121,-135 121,-135 121,-141 115,-147 109,-147"/>
<text text-anchor="middle" x="60.5" y="-129.7" font-family="Times New Roman,serif" font-size="14.00">Environment</text>
<text text-anchor="middle" x="60.5" y="-113.2" font-family="Times New Roman,serif" font-size="14.00">(Simulation Clock)</text>
</g>
<!-- Entity -->
<g id="node2" class="node">
<title>Entity</title>
<path fill="lightblue" stroke="black" d="M343.25,-54C343.25,-54 269.5,-54 269.5,-54 263.5,-54 257.5,-48 257.5,-42 257.5,-42 257.5,-25 257.5,-25 257.5,-19 263.5,-13 269.5,-13 269.5,-13 343.25,-13 343.25,-13 349.25,-13 355.25,-19 355.25,-25 355.25,-25 355.25,-42 355.25,-42 355.25,-48 349.25,-54 343.25,-54"/>
<text text-anchor="middle" x="306.38" y="-36.7" font-family="Times New Roman,serif" font-size="14.00">Entity</text>
<text text-anchor="middle" x="306.38" y="-20.2" font-family="Times New Roman,serif" font-size="14.00">(Agents/Items)</text>
</g>
<!-- Environment&#45;&gt;Entity -->
<g id="edge1" class="edge">
<title>Environment&#45;&gt;Entity</title>
<path fill="none" stroke="black" d="M93.8,-105.66C107.38,-97.51 123.58,-88.56 139,-82 173.54,-67.3 213.94,-55.4 246.28,-47.07"/>
<polygon fill="black" stroke="black" points="247.05,-50.49 255.89,-44.65 245.34,-43.7 247.05,-50.49"/>
<text text-anchor="middle" x="189.25" y="-85.2" font-family="Times New Roman,serif" font-size="14.00">creates</text>
</g>
<!-- Resource -->
<g id="node3" class="node">
<title>Resource</title>
<path fill="lightblue" stroke="black" d="M523.88,-109C523.88,-109 441.12,-109 441.12,-109 435.12,-109 429.12,-103 429.12,-97 429.12,-97 429.12,-80 429.12,-80 429.12,-74 435.12,-68 441.12,-68 441.12,-68 523.88,-68 523.88,-68 529.88,-68 535.88,-74 535.88,-80 535.88,-80 535.88,-97 535.88,-97 535.88,-103 529.88,-109 523.88,-109"/>
<text text-anchor="middle" x="482.5" y="-91.7" font-family="Times New Roman,serif" font-size="14.00">Resource</text>
<text text-anchor="middle" x="482.5" y="-75.2" font-family="Times New Roman,serif" font-size="14.00">(Capacity Pools)</text>
</g>
<!-- Environment&#45;&gt;Resource -->
<g id="edge2" class="edge">
<title>Environment&#45;&gt;Resource</title>
<path fill="none" stroke="black" d="M121.1,-134.12C127.14,-134.69 133.19,-135.16 139,-135.5 253.38,-142.12 285.04,-150 396.5,-123.5 406.87,-121.03 417.62,-117.47 427.84,-113.55"/>
<polygon fill="black" stroke="black" points="428.87,-116.91 436.85,-109.94 426.27,-110.41 428.87,-116.91"/>
<text text-anchor="middle" x="306.38" y="-145.17" font-family="Times New Roman,serif" font-size="14.00">manages</text>
</g>
<!-- Process -->
<g id="node5" class="node">
<title>Process</title>
<path fill="lightblue" stroke="black" d="M538.5,-195C538.5,-195 426.5,-195 426.5,-195 420.5,-195 414.5,-189 414.5,-183 414.5,-183 414.5,-166 414.5,-166 414.5,-160 420.5,-154 426.5,-154 426.5,-154 538.5,-154 538.5,-154 544.5,-154 550.5,-160 550.5,-166 550.5,-166 550.5,-183 550.5,-183 550.5,-189 544.5,-195 538.5,-195"/>
<text text-anchor="middle" x="482.5" y="-177.7" font-family="Times New Roman,serif" font-size="14.00">Process</text>
<text text-anchor="middle" x="482.5" y="-161.2" font-family="Times New Roman,serif" font-size="14.00">(Generator Functions)</text>
</g>
<!-- Environment&#45;&gt;Process -->
<g id="edge3" class="edge">
<title>Environment&#45;&gt;Process</title>
<path fill="none" stroke="black" d="M119.06,-147.49C125.72,-149.42 132.47,-151.15 139,-152.5 228.13,-170.93 332.83,-175.2 402.79,-175.65"/>
<polygon fill="black" stroke="black" points="402.62,-179.15 412.63,-175.68 402.64,-172.15 402.62,-179.15"/>
<text text-anchor="middle" x="306.38" y="-177.9" font-family="Times New Roman,serif" font-size="14.00">schedules</text>
</g>
<!-- Event -->
<g id="node6" class="node">
<title>Event</title>
<path fill="lightblue" stroke="black" d="M342.12,-113C342.12,-113 270.62,-113 270.62,-113 264.62,-113 258.62,-107 258.62,-101 258.62,-101 258.62,-84 258.62,-84 258.62,-78 264.62,-72 270.62,-72 270.62,-72 342.12,-72 342.12,-72 348.12,-72 354.12,-78 354.12,-84 354.12,-84 354.12,-101 354.12,-101 354.12,-107 348.12,-113 342.12,-113"/>
<text text-anchor="middle" x="306.38" y="-95.7" font-family="Times New Roman,serif" font-size="14.00">Event</text>
<text text-anchor="middle" x="306.38" y="-79.2" font-family="Times New Roman,serif" font-size="14.00">(Event Queue)</text>
</g>
<!-- Environment&#45;&gt;Event -->
<g id="edge4" class="edge">
<title>Environment&#45;&gt;Event</title>
<path fill="none" stroke="black" d="M121.47,-118.14C159.69,-112.81 208.96,-105.94 246.89,-100.65"/>
<polygon fill="black" stroke="black" points="247.35,-104.12 256.77,-99.28 246.38,-97.19 247.35,-104.12"/>
<text text-anchor="middle" x="189.25" y="-118.7" font-family="Times New Roman,serif" font-size="14.00">drives</text>
</g>
<!-- Entity&#45;&gt;Resource -->
<g id="edge6" class="edge">
<title>Entity&#45;&gt;Resource</title>
<path fill="none" stroke="black" d="M355.42,-48.67C374.7,-54.77 397.21,-61.87 417.82,-68.39"/>
<polygon fill="black" stroke="black" points="416.69,-71.7 427.28,-71.37 418.8,-65.02 416.69,-71.7"/>
<text text-anchor="middle" x="384.88" y="-64.2" font-family="Times New Roman,serif" font-size="14.00">uses</text>
</g>
<!-- Entity&#45;&gt;Process -->
<g id="edge5" class="edge">
<title>Entity&#45;&gt;Process</title>
<path fill="none" stroke="black" d="M342.78,-54.41C347.08,-57.32 351.34,-60.38 355.25,-63.5 364.1,-70.55 365.04,-73.72 373.25,-81.5 397.17,-104.16 425.46,-128.38 447.11,-146.42"/>
<polygon fill="black" stroke="black" points="444.86,-149.09 454.79,-152.78 449.33,-143.7 444.86,-149.09"/>
<text text-anchor="middle" x="384.88" y="-105.85" font-family="Times New Roman,serif" font-size="14.00">runs</text>
</g>
<!-- Recorder -->
<g id="node7" class="node">
<title>Recorder</title>
<path fill="lightyellow" stroke="black" d="M739,-70C739,-70 652.5,-70 652.5,-70 646.5,-70 640.5,-64 640.5,-58 640.5,-58 640.5,-41 640.5,-41 640.5,-35 646.5,-29 652.5,-29 652.5,-29 739,-29 739,-29 745,-29 751,-35 751,-41 751,-41 751,-58 751,-58 751,-64 745,-70 739,-70"/>
<text text-anchor="middle" x="695.75" y="-52.7" font-family="Times New Roman,serif" font-size="14.00">Recorder</text>
<text text-anchor="middle" x="695.75" y="-36.2" font-family="Times New Roman,serif" font-size="14.00">(Data Collection)</text>
</g>
<!-- Entity&#45;&gt;Recorder -->
<g id="edge7" class="edge">
<title>Entity&#45;&gt;Recorder</title>
<path fill="none" stroke="black" d="M355.35,-35.29C404.4,-37.14 482.76,-40.15 550.5,-43 576.12,-44.08 604.3,-45.33 628.9,-46.45"/>
<polygon fill="black" stroke="black" points="628.64,-49.94 638.79,-46.9 628.96,-42.95 628.64,-49.94"/>
<text text-anchor="middle" x="482.5" y="-46.2" font-family="Times New Roman,serif" font-size="14.00">records to</text>
</g>
<!-- Resource&#45;&gt;Recorder -->
<g id="edge8" class="edge">
<title>Resource&#45;&gt;Recorder</title>
<path fill="none" stroke="black" d="M536.26,-78.76C564.33,-73.58 599.1,-67.16 628.92,-61.65"/>
<polygon fill="black" stroke="black" points="629.4,-65.12 638.6,-59.87 628.13,-58.24 629.4,-65.12"/>
<text text-anchor="middle" x="595.5" y="-75.69" font-family="Times New Roman,serif" font-size="14.00">records to</text>
</g>
<!-- Distribution -->
<g id="node4" class="node">
<title>Distribution</title>
<path fill="lightblue" stroke="black" d="M97.75,-44C97.75,-44 23.25,-44 23.25,-44 17.25,-44 11.25,-38 11.25,-32 11.25,-32 11.25,-15 11.25,-15 11.25,-9 17.25,-3 23.25,-3 23.25,-3 97.75,-3 97.75,-3 103.75,-3 109.75,-9 109.75,-15 109.75,-15 109.75,-32 109.75,-32 109.75,-38 103.75,-44 97.75,-44"/>
<text text-anchor="middle" x="60.5" y="-26.7" font-family="Times New Roman,serif" font-size="14.00">Distribution</text>
<text text-anchor="middle" x="60.5" y="-10.2" font-family="Times New Roman,serif" font-size="14.00">(Random Vars)</text>
</g>
<!-- Distribution&#45;&gt;Entity -->
<g id="edge9" class="edge">
<title>Distribution&#45;&gt;Entity</title>
<path fill="none" stroke="black" d="M109.91,-22.34C145.74,-21.87 195.72,-22 239.5,-25 241.57,-25.14 243.67,-25.31 245.79,-25.49"/>
<polygon fill="black" stroke="black" points="245.43,-28.97 255.73,-26.46 246.12,-22 245.43,-28.97"/>
<text text-anchor="middle" x="189.25" y="-28.2" font-family="Times New Roman,serif" font-size="14.00">provides durations</text>
</g>
<!-- Dashboard -->
<g id="node8" class="node">
<title>Dashboard</title>
<path fill="lightgreen" stroke="black" d="M944,-100C944,-100 874.75,-100 874.75,-100 868.75,-100 862.75,-94 862.75,-88 862.75,-88 862.75,-71 862.75,-71 862.75,-65 868.75,-59 874.75,-59 874.75,-59 944,-59 944,-59 950,-59 956,-65 956,-71 956,-71 956,-88 956,-88 956,-94 950,-100 944,-100"/>
<text text-anchor="middle" x="909.38" y="-82.7" font-family="Times New Roman,serif" font-size="14.00">Dashboard</text>
<text text-anchor="middle" x="909.38" y="-66.2" font-family="Times New Roman,serif" font-size="14.00">(Streamlit UI)</text>
</g>
<!-- Recorder&#45;&gt;Dashboard -->
<g id="edge10" class="edge">
<title>Recorder&#45;&gt;Dashboard</title>
<path fill="none" stroke="black" d="M751.25,-57.23C781.9,-61.57 820.13,-66.99 851.2,-71.39"/>
<polygon fill="black" stroke="black" points="850.41,-74.82 860.8,-72.76 851.39,-67.89 850.41,-74.82"/>
<text text-anchor="middle" x="806.88" y="-73" font-family="Times New Roman,serif" font-size="14.00">feeds</text>
</g>
<!-- Logger -->
<g id="node9" class="node">
<title>Logger</title>
<path fill="lightblue" stroke="black" d="M941.38,-41C941.38,-41 877.38,-41 877.38,-41 871.38,-41 865.38,-35 865.38,-29 865.38,-29 865.38,-12 865.38,-12 865.38,-6 871.38,0 877.38,0 877.38,0 941.38,0 941.38,0 947.38,0 953.38,-6 953.38,-12 953.38,-12 953.38,-29 953.38,-29 953.38,-35 947.38,-41 941.38,-41"/>
<text text-anchor="middle" x="909.38" y="-23.7" font-family="Times New Roman,serif" font-size="14.00">Logger</text>
<text text-anchor="middle" x="909.38" y="-7.2" font-family="Times New Roman,serif" font-size="14.00">(Log Config)</text>
</g>
<!-- Recorder&#45;&gt;Logger -->
<g id="edge11" class="edge">
<title>Recorder&#45;&gt;Logger</title>
<path fill="none" stroke="black" d="M751.25,-42.03C782.77,-37.71 822.31,-32.29 853.84,-27.97"/>
<polygon fill="black" stroke="black" points="854.13,-31.47 863.56,-26.64 853.18,-24.53 854.13,-31.47"/>
<text text-anchor="middle" x="806.88" y="-42.49" font-family="Times New Roman,serif" font-size="14.00">configured by</text>
</g>
</g>
</svg>
