<?xml version="1.0" encoding="UTF-8" standalone="no"?>
<!DOCTYPE svg PUBLIC "-//W3C//DTD SVG 1.1//EN"
 "http://www.w3.org/Graphics/SVG/1.1/DTD/svg11.dtd">
<!-- Generated by graphviz version 12.1.2 (20240928.0832)
 -->
<!-- Title: SimPM_Workflow Pages: 1 -->
<svg width="149pt" height="558pt"
 viewBox="0.00 0.00 148.50 558.00" xmlns="http://www.w3.org/2000/svg" xmlns:xlink="http://www.w3.org/1999/xlink">
<g id="graph0" class="graph" transform="scale(1 1) rotate(0) translate(4 554)">
<title>SimPM_Workflow</title>
<polygon fill="white" stroke="none" points="-4,4 -4,-554 144.5,-554 144.5,4 -4,4"/>
<!-- Start -->
<g id="node1" class="node">
<title>Start</title>
<ellipse fill="lightblue" stroke="black" cx="70.25" cy="-532" rx="28.32" ry="18"/>
<text text-anchor="middle" x="70.25" y="-526.95" font-family="Times New Roman,serif" font-size="14.00">Start</text>
</g>
<!-- CreateEnv -->
<g id="node2" class="node">
<title>CreateEnv</title>
<polygon fill="lightcoral" stroke="black" points="140.5,-478 0,-478 0,-442 140.5,-442 140.5,-478"/>
<text text-anchor="middle" x="70.25" y="-454.95" font-family="Times New Roman,serif" font-size="14.00">1. Create Environment</text>
</g>
<!-- Start&#45;&gt;CreateEnv -->
<g id="edge1" class="edge">
<title>Start&#45;&gt;CreateEnv</title>
<path fill="none" stroke="black" d="M70.25,-513.7C70.25,-506.41 70.25,-497.73 70.25,-489.54"/>
<polygon fill="black" stroke="black" points="73.75,-489.62 70.25,-479.62 66.75,-489.62 73.75,-489.62"/>
</g>
<!-- CreateResources -->
<g id="node3" class="node">
<title>CreateResources</title>
<polygon fill="lightblue" stroke="black" points="132.62,-406 7.88,-406 7.88,-370 132.62,-370 132.62,-406"/>
<text text-anchor="middle" x="70.25" y="-382.95" font-family="Times New Roman,serif" font-size="14.00">2. Create Resources</text>
</g>
<!-- CreateEnv&#45;&gt;CreateResources -->
<g id="edge2" class="edge">
<title>CreateEnv&#45;&gt;CreateResources</title>
<path fill="none" stroke="black" d="M70.25,-441.7C70.25,-434.41 70.25,-425.73 70.25,-417.54"/>
<polygon fill="black" stroke="black" points="73.75,-417.62 70.25,-407.62 66.75,-417.62 73.75,-417.62"/>
</g>
<!-- CreateEntities -->
<g id="node4" class="node">
<title>CreateEntities</title>
<polygon fill="lightblue" stroke="black" points="125.5,-334 15,-334 15,-298 125.5,-298 125.5,-334"/>
<text text-anchor="middle" x="70.25" y="-310.95" font-family="Times New Roman,serif" font-size="14.00">3. Create Entities</text>
</g>
<!-- CreateResources&#45;&gt;CreateEntities -->
<g id="edge3" class="edge">
<title>CreateResources&#45;&gt;CreateEntities</title>
<path fill="none" stroke="black" d="M70.25,-369.7C70.25,-362.41 70.25,-353.73 70.25,-345.54"/>
<polygon fill="black" stroke="black" points="73.75,-345.62 70.25,-335.62 66.75,-345.62 73.75,-345.62"/>
</g>
<!-- DefineProcess -->
<g id="node5" class="node">
<title>DefineProcess</title>
<polygon fill="lightblue" stroke="black" points="131.88,-262 8.62,-262 8.62,-226 131.88,-226 131.88,-262"/>
<text text-anchor="middle" x="70.25" y="-238.95" font-family="Times New Roman,serif" font-size="14.00">4. Define Processes</text>
</g>
<!-- CreateEntities&#45;&gt;DefineProcess -->
<g id="edge4" class="edge">
<title>CreateEntities&#45;&gt;DefineProcess</title>
<path fill="none" stroke="black" d="M70.25,-297.7C70.25,-290.41 70.25,-281.73 70.25,-273.54"/>
<polygon fill="black" stroke="black" points="73.75,-273.62 70.25,-263.62 66.75,-273.62 73.75,-273.62"/>
</g>
<!-- RunSim -->
<g id="node6" class="node">
<title>RunSim</title>
<polygon fill="lightyellow" stroke="black" points="128.5,-190 12,-190 12,-149 128.5,-149 128.5,-190"/>
<text text-anchor="middle" x="70.25" y="-172.7" font-family="Times New Roman,serif" font-size="14.00">5. Run Simulation</text>
<text text-anchor="middle" x="70.25" y="-156.2" font-family="Times New Roman,serif" font-size="14.00">(simpm.run)</text>
</g>
<!-- DefineProcess&#45;&gt;RunSim -->
<g id="edge5" class="edge">
<title>DefineProcess&#45;&gt;RunSim</title>
<path fill="none" stroke="black" d="M70.25,-225.82C70.25,-218.59 70.25,-209.95 70.25,-201.66"/>
<polygon fill="black" stroke="black" points="73.75,-201.89 70.25,-191.89 66.75,-201.89 73.75,-201.89"/>
</g>
<!-- ViewResults -->
<g id="node7" class="node">
<title>ViewResults</title>
<polygon fill="lightgreen" stroke="black" points="127.38,-113 13.12,-113 13.12,-72 127.38,-72 127.38,-113"/>
<text text-anchor="middle" x="70.25" y="-95.7" font-family="Times New Roman,serif" font-size="14.00">6. View Results</text>
<text text-anchor="middle" x="70.25" y="-79.2" font-family="Times New Roman,serif" font-size="14.00">(Dashboard/Logs)</text>
</g>
<!-- RunSim&#45;&gt;ViewResults -->
<g id="edge6" class="edge">
<title>RunSim&#45;&gt;ViewResults</title>
<path fill="none" stroke="black" d="M70.25,-148.79C70.25,-141.45 70.25,-132.91 70.25,-124.78"/>
<polygon fill="black" stroke="black" points="73.75,-124.85 70.25,-114.85 66.75,-124.85 73.75,-124.85"/>
</g>
<!-- End -->
<g id="node8" class="node">
<title>End</title>
<ellipse fill="lightblue" stroke="black" cx="70.25" cy="-18" rx="27" ry="18"/>
<text text-anchor="middle" x="70.25" y="-12.95" font-family="Times New Roman,serif" font-size="14.00">End</text>
</g>
<!-- ViewResults&#45;&gt;End -->
<g id="edge7" class="edge">
<title>ViewResults&#45;&gt;End</title>
<path fill="none" stroke="black" d="M70.25,-71.69C70.25,-64.25 70.25,-55.64 70.25,-47.57"/>
<polygon fill="black" stroke="black" points="73.75,-47.83 70.25,-37.83 66.75,-47.83 73.75,-47.83"/>
</g>
</g>
</svg>
